<svg xmlns="http://www.w3.org/2000/svg" xmlns:xlink="http://www.w3.org/1999/xlink" width="1920" zoomAndPan="magnify" viewBox="0 0 1440 809.999993" height="1080" preserveAspectRatio="xMidYMid meet" version="1.0"><defs><clipPath id="ccf71539a2"><path d="M 0 160.21875 L 1440 160.21875 L 1440 649.96875 L 0 649.96875 Z M 0 160.21875 " clip-rule="nonzero"/></clipPath></defs><rect x="-144" width="1728" fill="#ffffff" y="-80.999999" height="971.999992" fill-opacity="1"/><rect x="-144" width="1728" fill="#ffffff" y="-80.999999" height="971.999992" fill-opacity="1"/><rect x="-144" width="1728" fill="#ffffff" y="-80.999999" height="971.999992" fill-opacity="1"/><g clip-path="url(#ccf71539a2)"><path fill="#3454b8" d="M 369.273438 200.863281 L 441.585938 326.90625 L 469.84375 398.53125 L 500.320312 372.730469 L 535.929688 334.726562 L 497.863281 291.875 L 471.527344 267.722656 L 484.617188 338.4375 L 449.144531 267.445312 L 412.914062 233.609375 Z M 911.824219 576.042969 L 981.132812 634.550781 L 921.75 553.128906 L 911.15625 541.742188 Z M 995.519531 649.996094 L 909.324219 577.230469 L 908.578125 538.972656 L 856.957031 483.5 L 734.070312 572.371094 L 670 468.8125 L 670 390.773438 L 655.3125 307.484375 L 701.601562 270.917969 L 704.007812 184.199219 L 699.714844 170.488281 L 684.441406 199.328125 L 623.988281 286.433594 L 657.863281 516.441406 L 778.082031 624.199219 L 672.871094 595.953125 L 621.410156 510.128906 L 621.410156 368.960938 L 604.328125 310.359375 L 621.988281 268.390625 L 574.960938 306.480469 L 476.492188 422.253906 L 468.792969 402.726562 L 438.746094 428.164062 L 403.265625 448.449219 L 383.246094 383.351562 L 402.644531 325.121094 L 385.796875 291.367188 L 357.324219 201.148438 L 284.070312 286.265625 L 322.304688 350.820312 L 354.175781 367.988281 L 359.058594 419.296875 L 406.847656 472.148438 L 367.9375 472.148438 L 282.902344 528.0625 L 241.582031 528.0625 L 144.886719 588.207031 L 247.183594 470.492188 L 239.929688 419.710938 L 261.863281 356.3125 L 273.535156 286.246094 L 237.296875 308.910156 L 171.742188 420.664062 L 142.546875 445.003906 L 45.195312 586.253906 L 44.730469 586.367188 L -130.199219 630.125 L -130.808594 627.679688 L 43.660156 584.035156 L 140.671875 443.285156 L 140.800781 443.175781 L 169.789062 419.003906 L 235.433594 307.097656 L 276.941406 281.144531 L 264.28125 357.039062 L 242.515625 419.957031 L 249.839844 471.277344 L 157.773438 577.21875 L 240.863281 525.539062 L 282.148438 525.539062 L 367.183594 469.625 L 401.164062 469.625 L 356.628906 420.371094 L 351.792969 369.574219 L 320.492188 352.707031 L 280.980469 285.992188 L 358.363281 196.070312 L 388.171875 290.511719 L 405.367188 324.925781 L 385.894531 383.382812 L 404.746094 444.699219 L 437.292969 426.089844 L 467.8125 400.25 L 439.308594 328.003906 L 360.992188 191.492188 L 414.582031 231.722656 L 451.195312 265.910156 L 478.886719 321.332031 L 467.679688 260.769531 L 499.699219 290.148438 L 539.339844 334.769531 L 502.003906 374.605469 L 470.824219 401.007812 L 477.296875 417.414062 L 573.191406 304.667969 L 573.285156 304.59375 L 628.210938 260.105469 L 606.996094 310.515625 L 623.929688 368.601562 L 623.929688 509.433594 L 674.511719 593.78125 L 768.527344 619.023438 L 655.503906 517.710938 L 621.351562 285.816406 L 682.332031 197.953125 L 700.3125 163.960938 L 706.539062 183.847656 L 706.535156 184.058594 L 704.089844 272.164062 L 658.054688 308.527344 L 672.523438 390.550781 L 672.523438 468.09375 L 734.789062 568.742188 L 857.285156 480.152344 L 908.5 535.191406 L 908.113281 515.203125 L 837.84375 449.738281 L 806.15625 371.6875 L 774.601562 306.121094 L 735.695312 228.265625 L 707.359375 160.21875 L 801.15625 287.996094 L 851.796875 389.34375 L 885.375 386.941406 L 919.953125 408.082031 L 815.816406 306.25 L 912.492188 350.699219 L 964.453125 397.734375 L 941.949219 432.753906 L 910.777344 473.539062 L 923.953125 510.882812 L 956.839844 419.203125 L 956.972656 419.035156 L 1065.496094 285.773438 L 1085.550781 371.210938 L 1085.550781 419.472656 L 1117.140625 470.527344 L 1117.140625 513.992188 L 1175.0625 555.046875 L 1175.175781 555.1875 L 1221.046875 613.167969 L 1337.257812 635.964844 L 1260.695312 590.902344 L 1260.523438 590.570312 L 1221.8125 513.101562 L 1165.933594 479.066406 L 1165.765625 478.742188 L 1124.46875 396.085938 L 1073.890625 300.195312 L 1146.089844 377.785156 L 1146.171875 377.964844 L 1170.386719 428.851562 L 1260.222656 528.464844 L 1298.824219 579.152344 L 1570.484375 639.828125 L 1569.9375 642.289062 L 1297.371094 581.410156 L 1258.253906 530.035156 L 1168.269531 430.265625 L 1168.1875 430.097656 L 1143.976562 379.222656 L 1084.976562 315.816406 L 1126.710938 394.933594 L 1167.859375 477.289062 L 1223.746094 511.324219 L 1223.90625 511.648438 L 1262.617188 589.109375 L 1351.265625 641.285156 L 1219.65625 615.460938 L 1173.3125 556.898438 L 1114.621094 515.296875 L 1114.621094 471.242188 L 1083.03125 420.191406 L 1083.03125 371.359375 L 1064.222656 291.339844 L 959.066406 420.460938 L 923.929688 518.40625 L 907.945312 473.09375 L 939.910156 431.265625 L 961.175781 398.171875 L 911.085938 352.828125 L 827.976562 314.621094 L 937.648438 421.859375 L 884.753906 389.519531 L 850.300781 391.976562 L 798.953125 289.214844 L 717.765625 178.65625 L 738.007812 227.253906 L 776.863281 305.011719 L 808.457031 370.667969 L 839.964844 448.273438 L 910.609375 514.082031 L 911.082031 537.960938 L 923.742188 551.582031 L 995.519531 649.996094 " fill-opacity="1" fill-rule="nonzero"/></g></svg>